<?xml version="1.0" ?><svg id="Layer_1" style="enable-background:new 0 0 65 65;" version="1.1" viewBox="0 0 65 65" xml:space="preserve" xmlns="http://www.w3.org/2000/svg" xmlns:xlink="http://www.w3.org/1999/xlink"><style type="text/css">
	.st0{fill:#4E7D81;}
</style><g><path class="st0" d="M57,62.5H45c-0.6,0-1,0.4-1,1s0.4,1,1,1h12c0.6,0,1-0.4,1-1S57.6,62.5,57,62.5z"/><path class="st0" d="M62,62.5h-2c-0.6,0-1,0.4-1,1s0.4,1,1,1h2c0.6,0,1-0.4,1-1S62.6,62.5,62,62.5z"/><path class="st0" d="M4,14.5c0.6,0,1-0.4,1-1v-8c0-0.6-0.4-1-1-1s-1,0.4-1,1v8C3,14.1,3.4,14.5,4,14.5z"/><path class="st0" d="M4,3.5c0.6,0,1-0.4,1-1v-1c0-0.6-0.4-1-1-1s-1,0.4-1,1v1C3,3.1,3.4,3.5,4,3.5z"/><path class="st0" d="M8,37.5c0-0.6-0.4-1-1-1H6v-1c0-0.6-0.4-1-1-1s-1,0.4-1,1v1H3c-0.6,0-1,0.4-1,1s0.4,1,1,1h1v1c0,0.6,0.4,1,1,1   s1-0.4,1-1v-1h1C7.6,38.5,8,38.1,8,37.5z"/><path class="st0" d="M58.1,4.5h-1v-1c0-0.6-0.4-1-1-1s-1,0.4-1,1v1h-1c-0.6,0-1,0.4-1,1s0.4,1,1,1h1v1c0,0.6,0.4,1,1,1s1-0.4,1-1   v-1h1c0.6,0,1-0.4,1-1S58.7,4.5,58.1,4.5z"/><path class="st0" d="M19.7,46.8c-2.3,0-4.5-0.8-6.2-2.2l-6,12.8L17,54l3.5,9.5l6.1-13c-1-0.5-1.8-1.1-2.6-1.9   C22.8,47.4,21.3,46.8,19.7,46.8z"/><path class="st0" d="M47.4,45.4c-1.5,0.9-3.2,1.4-5.1,1.4c-1.6,0-3.1,0.6-4.2,1.8c-1.1,1.1-2.4,1.9-3.9,2.4L40,63.5l3.5-9.5   l9.5,3.5L47.4,45.4z"/><path class="st0" d="M31,9.5c-8.8,0-16,7.2-16,16s7.2,16,16,16s16-7.2,16-16S39.8,9.5,31,9.5z M38,35.2l-7-3.7l-7,3.7l1.3-7.8   l-5.7-5.5l7.8-1.1l3.5-7.1l3.5,7.1l7.8,1.1l-5.7,5.5L38,35.2z"/><path class="st0" d="M42.3,44.8L42.3,44.8c4.4,0,8-3.6,8-8c0-2.1,0.8-4.2,2.3-5.7v0c3.1-3.1,3.1-8.2,0-11.3v0   c-1.5-1.5-2.3-3.5-2.3-5.7c0-4.4-3.6-8-8-8h0c-2.1,0-4.2-0.8-5.7-2.3l0,0c-3.1-3.1-8.2-3.1-11.3,0l0,0c-1.5,1.5-3.5,2.3-5.7,2.3h0   c-4.4,0-8,3.6-8,8v0c0,2.1-0.8,4.2-2.3,5.7l0,0C6.2,23,6.2,28,9.3,31.2l0,0c1.5,1.5,2.3,3.5,2.3,5.7v0c0,4.4,3.6,8,8,8h0   c2.1,0,4.2,0.8,5.7,2.3v0c3.1,3.1,8.2,3.1,11.3,0C38.2,45.7,40.2,44.8,42.3,44.8z M31,43.5c-9.9,0-18-8.1-18-18s8.1-18,18-18   s18,8.1,18,18S40.9,43.5,31,43.5z"/></g></svg>