<svg width="140" height="140" viewBox="0 0 140 140" fill="none" xmlns="http://www.w3.org/2000/svg">
<path d="M137.812 50.3125C137.812 46.4231 136.299 42.7656 133.547 40.0159C132.912 39.3816 131.989 39.2241 131.204 39.5303C131.233 36.8441 130.502 34.1666 129.062 31.8084V2.1875C129.062 1.30375 128.531 0.503125 127.713 0.16625C127.442 0.0525 127.157 0.0196875 126.875 0.0196875V0H87.5H61.25H28.4375C27.8556 0 27.3 0.229688 26.8909 0.640938L0.643125 26.8887C0.247188 27.2847 0 27.8316 0 28.4375V120.312C0 121.522 0.977813 122.5 2.1875 122.5H100.625C100.912 122.5 101.196 122.441 101.463 122.332C101.732 122.22 101.973 122.058 102.174 121.857L128.422 95.6091C128.833 95.2 129.062 94.6444 129.062 94.0625V81.2109C131.534 79.6381 133.785 77.8706 135.734 75.9216C138.486 73.1719 140 69.5144 140 65.625C140 62.1469 138.788 58.8525 136.566 56.2297C137.384 54.39 137.812 52.3841 137.812 50.3125ZM104.204 64.0784L102.016 66.2659L97.6413 70.6409L100.734 73.7341L105.109 69.3591L107.297 67.1716L112.149 62.3197C113.19 63.945 113.75 65.8372 113.75 67.8125C113.75 70.5337 112.691 73.0909 110.766 75.0159L108.579 77.2034L102.016 83.7659L105.109 86.8591L111.672 80.2966L113.859 78.1091L114.336 77.6322C115.378 79.2575 115.938 81.1497 115.938 83.125C115.938 85.8462 114.879 88.4034 112.954 90.3284C106.315 96.9675 97.4837 100.625 88.095 100.625H78.75C71.5116 100.625 65.625 94.7384 65.625 87.5C65.625 80.2616 71.5116 74.375 78.75 74.375H81.3138C81.8891 74.375 82.4403 74.1475 82.8472 73.7472L105.575 51.3691C106.625 52.9966 107.188 54.8931 107.188 56.875C107.188 59.5962 106.129 62.1534 104.204 64.0784ZM99.7194 26.25H66.5306L88.4056 4.375H121.594L99.7194 26.25ZM82.2194 4.375L59.7034 26.8909C59.2922 27.3 59.0625 27.8556 59.0625 28.4375V59.3512L55.9016 57.2425C55.1666 56.7503 54.2106 56.7503 53.4756 57.2425L48.125 60.8081L42.7766 57.2425C42.4091 56.9975 41.9847 56.875 41.5625 56.875C41.1403 56.875 40.7159 56.9975 40.3484 57.2425L37.1875 59.3512V29.3431L62.1556 4.375H82.2194ZM29.3431 4.375H55.9694L34.0944 26.25H7.46813L29.3431 4.375ZM4.375 30.625H32.8125V63.4375C32.8125 64.2447 33.2566 64.9862 33.9675 65.3669C34.6762 65.7475 35.5447 65.7038 36.2119 65.2575L41.5625 61.6919L46.9109 65.2575C47.6459 65.7497 48.6019 65.7497 49.3369 65.2575L54.6875 61.6919L60.0359 65.2575C60.4012 65.5003 60.8256 65.625 61.25 65.625C61.6044 65.625 61.9588 65.5397 62.2825 65.3669C62.9934 64.9862 63.4375 64.2447 63.4375 63.4375V30.625H98.4375V52.255L80.4169 70H78.75C69.1009 70 61.25 77.8509 61.25 87.5C61.25 97.1491 69.1009 105 78.75 105H88.095C91.6409 105 95.1016 104.497 98.4375 103.598V118.125H4.375V30.625ZM124.688 93.1569L102.812 115.032V102.161C107.706 100.198 112.206 97.2628 116.047 93.4216C118.799 90.6719 120.312 87.0144 120.312 83.125C120.312 79.6425 119.092 76.3525 116.863 73.7275C117.683 71.8878 118.125 69.8863 118.125 67.8125C118.125 63.9231 116.611 60.2656 113.859 57.5159C113.236 56.8925 112.333 56.735 111.556 57.0216C111.556 56.9734 111.562 56.9253 111.562 56.875C111.562 52.9856 110.049 49.3281 107.297 46.5784C106.446 45.7275 105.07 45.7253 104.217 46.5653L102.812 47.9478V29.3431L124.688 7.46813V32.3837V46.3684V46.6878V80.01V93.1569ZM132.641 72.8284C131.55 73.92 130.353 74.9547 129.062 75.9194V47.5934L131.836 44.8197C132.878 46.445 133.438 48.3372 133.438 50.3125C133.438 53.0337 132.379 55.5909 130.454 57.5159C129.598 58.3712 129.598 59.7538 130.454 60.6091C131.309 61.4644 132.692 61.4644 133.547 60.6091C133.553 60.6025 133.558 60.5981 133.564 60.5916L134.024 60.1322C135.065 61.7575 135.625 63.6497 135.625 65.625C135.625 68.3462 134.566 70.9034 132.641 72.8284Z" fill="#4E7D81"/>
<path d="M78.75 78.75C73.9244 78.75 70 82.6744 70 87.5C70 92.3256 73.9244 96.25 78.75 96.25C83.5756 96.25 87.5 92.3256 87.5 87.5C87.5 82.6744 83.5756 78.75 78.75 78.75ZM78.75 91.875C76.3372 91.875 74.375 89.9128 74.375 87.5C74.375 85.0872 76.3372 83.125 78.75 83.125C81.1628 83.125 83.125 85.0872 83.125 87.5C83.125 89.9128 81.1628 91.875 78.75 91.875Z" fill="#81BABE"/>
<path d="M48.125 126.875H15.3125V131.25H48.125V126.875Z" fill="#81BABE"/>
<path d="M56.875 126.875H52.5V131.25H56.875V126.875Z" fill="#81BABE"/>
<path d="M65.625 126.875H61.25V131.25H65.625V126.875Z" fill="#81BABE"/>
<path d="M74.375 126.875H70V131.25H74.375V126.875Z" fill="#81BABE"/>
<path d="M94.0625 135.625H61.25V140H94.0625V135.625Z" fill="#81BABE"/>
<path d="M102.812 135.625H98.4375V140H102.812V135.625Z" fill="#81BABE"/>
<path d="M111.562 135.625H107.188V140H111.562V135.625Z" fill="#81BABE"/>
<path d="M120.312 135.625H115.938V140H120.312V135.625Z" fill="#81BABE"/>
<path d="M115.938 124.688H111.562V129.062H115.938V124.688Z" fill="#81BABE"/>
<path d="M124.688 124.688H120.312V129.062H124.688V124.688Z" fill="#81BABE"/>
<path d="M133.438 124.688H129.062V129.062H133.438V124.688Z" fill="#81BABE"/>
</svg>
